solid AssimpScene
 facet normal 0 0 1
  outer loop
  vertex -1.65212 11.5745 80
  vertex -1.65212 -54.7368 80
  vertex 62.5385 11.5745 80
  endloop
 endfacet

 facet normal 0 0 1
  outer loop
  vertex 62.5385 11.5745 80
  vertex -1.65212 -54.7368 80
  vertex 62.5385 -54.7368 80
  endloop
 endfacet

 facet normal 0 0 -1
  outer loop
  vertex -1.65212 -54.7368 0
  vertex -1.65212 11.5745 0
  vertex 62.5385 -54.7368 0
  endloop
 endfacet

 facet normal 0 0 -1
  outer loop
  vertex 62.5385 -54.7368 0
  vertex -1.65212 11.5745 0
  vertex 62.5385 11.5745 0
  endloop
 endfacet

 facet normal 0 -1 0
  outer loop
  vertex 62.5385 -54.7368 80
  vertex -1.65212 -54.7368 80
  vertex 62.5385 -54.7368 0
  endloop
 endfacet

 facet normal 0 -1 0
  outer loop
  vertex 62.5385 -54.7368 0
  vertex -1.65212 -54.7368 80
  vertex -1.65212 -54.7368 0
  endloop
 endfacet

 facet normal -1 0 0
  outer loop
  vertex -1.65212 -54.7368 80
  vertex -1.65212 11.5745 80
  vertex -1.65212 -54.7368 0
  endloop
 endfacet

 facet normal -1 0 0
  outer loop
  vertex -1.65212 -54.7368 0
  vertex -1.65212 11.5745 80
  vertex -1.65212 11.5745 0
  endloop
 endfacet

 facet normal 0 1 0
  outer loop
  vertex -1.65212 11.5745 80
  vertex 62.5385 11.5745 80
  vertex -1.65212 11.5745 0
  endloop
 endfacet

 facet normal 0 1 0
  outer loop
  vertex -1.65212 11.5745 0
  vertex 62.5385 11.5745 80
  vertex 62.5385 11.5745 0
  endloop
 endfacet

 facet normal 1 0 0
  outer loop
  vertex 62.5385 11.5745 80
  vertex 62.5385 -54.7368 80
  vertex 62.5385 11.5745 0
  endloop
 endfacet

 facet normal 1 0 0
  outer loop
  vertex 62.5385 11.5745 0
  vertex 62.5385 -54.7368 80
  vertex 62.5385 -54.7368 0
  endloop
 endfacet

endsolid AssimpScene
